<?xml version="1.0" encoding="UTF-8"?>
<!DOCTYPE svg PUBLIC "-//W3C//DTD SVG 1.1//EN" "http://www.w3.org/Graphics/SVG/1.1/DTD/svg11.dtd">
<svg xmlns="http://www.w3.org/2000/svg" version="1.1" width="512px" height="512px" style="shape-rendering:geometricPrecision; text-rendering:geometricPrecision; image-rendering:optimizeQuality; fill-rule:evenodd; clip-rule:evenodd" xmlns:xlink="http://www.w3.org/1999/xlink">
<g><path style="opacity:0.999" fill="#5497ff" d="M 278.5,25.5 C 278.5,179.5 278.5,333.5 278.5,487.5C 260.167,487.5 241.833,487.5 223.5,487.5C 223.833,333.999 223.5,180.666 222.5,27.5C 227.586,25.8123 232.92,24.6456 238.5,24C 249.5,23.3333 260.5,23.3333 271.5,24C 274.036,24.1862 276.369,24.6862 278.5,25.5 Z"/></g>
<g><path style="opacity:1" fill="#5196ff" d="M 278.5,25.5 C 280.95,25.298 283.283,25.6314 285.5,26.5C 286.498,180.097 286.832,333.763 286.5,487.5C 283.833,487.5 281.167,487.5 278.5,487.5C 278.5,333.5 278.5,179.5 278.5,25.5 Z"/></g>
<g><path style="opacity:0.999" fill="#4d93ff" d="M 285.5,26.5 C 308.139,30.985 327.806,40.985 344.5,56.5C 343.5,199.999 343.167,343.666 343.5,487.5C 324.5,487.5 305.5,487.5 286.5,487.5C 286.832,333.763 286.498,180.097 285.5,26.5 Z"/></g>
<g><path style="opacity:0.999" fill="#599bff" d="M 222.5,27.5 C 223.5,180.666 223.833,333.999 223.5,487.5C 208.5,487.5 193.5,487.5 178.5,487.5C 178.5,340.833 178.5,194.167 178.5,47.5C 191.549,37.581 206.216,30.9143 222.5,27.5 Z"/></g>
<g><path style="opacity:1" fill="#5c9dff" d="M 178.5,47.5 C 178.5,194.167 178.5,340.833 178.5,487.5C 174.833,487.5 171.167,487.5 167.5,487.5C 167.833,343.666 167.5,199.999 166.5,56.5C 169.929,52.7376 173.929,49.7376 178.5,47.5 Z"/></g>
<g><path style="opacity:0.995" fill="#609eff" d="M 166.5,56.5 C 167.5,199.999 167.833,343.666 167.5,487.5C 148.833,487.5 130.167,487.5 111.5,487.5C 111.5,413.5 111.5,339.5 111.5,265.5C 116.681,260.157 122.348,255.323 128.5,251C 137.984,245.591 147.651,240.758 157.5,236.5C 123.777,198.39 114.944,155.056 131,106.5C 138.395,86.617 150.228,69.9503 166.5,56.5 Z"/></g>
<g><path style="opacity:0.997" fill="#4890ff" d="M 344.5,56.5 C 382.83,91.6744 395.663,134.674 383,185.5C 377.262,204.989 367.429,221.989 353.5,236.5C 361.743,239.955 369.743,243.955 377.5,248.5C 377.5,328.167 377.5,407.833 377.5,487.5C 366.167,487.5 354.833,487.5 343.5,487.5C 343.167,343.666 343.5,199.999 344.5,56.5 Z"/></g>
<g><path style="opacity:0.998" fill="#458eff" d="M 377.5,248.5 C 386.338,253.004 394.004,259.004 400.5,266.5C 399.501,339.998 399.167,413.665 399.5,487.5C 392.167,487.5 384.833,487.5 377.5,487.5C 377.5,407.833 377.5,328.167 377.5,248.5 Z"/></g>
<g><path style="opacity:0.997" fill="#65a1ff" d="M 111.5,265.5 C 111.5,339.5 111.5,413.5 111.5,487.5C 96.9497,490.639 86.4497,485.639 80,472.5C 79.3333,424.5 79.3333,376.5 80,328.5C 83.639,303.888 94.139,282.888 111.5,265.5 Z"/></g>
<g><path style="opacity:0.994" fill="#428dff" d="M 400.5,266.5 C 415.803,282.098 425.636,300.765 430,322.5C 431.139,348.466 431.639,374.466 431.5,400.5C 431.333,424.5 431.167,448.5 431,472.5C 424.55,485.639 414.05,490.639 399.5,487.5C 399.167,413.665 399.501,339.998 400.5,266.5 Z"/></g>
</svg>
